<svg id="Grupo_2" data-name="Grupo 2" xmlns="http://www.w3.org/2000/svg" xmlns:xlink="http://www.w3.org/1999/xlink" width="180" height="94.284" viewBox="0 0 180 94.284">
  <defs>
    <clipPath id="clip-path">
      <rect id="Rectángulo_5" data-name="Rectángulo 5" width="180" height="94.284" fill="#e90000"/>
    </clipPath>
  </defs>
  <g id="Grupo_1" data-name="Grupo 1" clip-path="url(#clip-path)">
    <path id="Trazado_1" data-name="Trazado 1" d="M163.613,62.595l-.4,0C157,60.458,150.5,59.029,144.1,57.37c-24.595-6.066-53.544-7.832-79.721-3.287-12.013,2.542-25.484,6.4-38.263,2.965C19.5,55.361,12.42,50.847,9.337,44.2c-3.829-6.869-3.627-17.351.708-23.9C17.347,7.9,30.054,2.141,43.146.221c9.289-.794,18.335.5,25.931,4.67l.525.456L57.981,14.133c-5.5-5.179-14.391-5.935-21.339-3.35-6.3,1.939-11.863,8.41-13.915,14.487-2.186,7.262-.881,15.809,4.689,21.056,3.984,3.53,9.257,4.022,14.69,3.729l26.81-2.8c7.237-.52,14.275-1.054,21.738-1.058l17.065-.18a516.454,516.454,0,0,1,61.053,5.048,79.666,79.666,0,0,1,8.052,1.786Z" transform="translate(-1.584 0)" fill="#e90000"/>
    <path id="Trazado_2" data-name="Trazado 2" d="M161.925,17.98a3.936,3.936,0,0,1-2.766,1.137,3.75,3.75,0,0,1-3.095-2.039,3.484,3.484,0,0,1,.354-3.652,3.757,3.757,0,0,1,3.92-1.269,3.678,3.678,0,0,1,2.532,2.972,3.713,3.713,0,0,1-.945,2.851" transform="translate(-37.247 -2.879)" fill="#e90000"/>
    <path id="Trazado_3" data-name="Trazado 3" d="M177.616,22.265a6.782,6.782,0,0,0-7.316-1.75c-6.468,1.9-7.885,9.353-12.716,13.367-2.278,1.553-4.8,4.021-7.778,2.422a3.765,3.765,0,0,1-2-2.747,10.542,10.542,0,0,1,2.608-7.848A6.413,6.413,0,0,1,157.33,24l1.125-2.45a8.23,8.23,0,0,0-8.113-.868c-6.91,2.482-6.553,10.173-11.138,14.737-1.311,1.378-3.073,2.546-4.892,1.923a3.377,3.377,0,0,1-1.478-2.24c-.377-5.478,2.3-10.03,4.313-14.7l-4.924.011c-2.2,4.7-4.2,9.472-7.444,13.757-2.053,2.14-4.142,4.923-7.283,4.9a4.919,4.919,0,0,1-3.849-2.2,40.685,40.685,0,0,0,7.615-10.119c2.773-5.289,5.795-11.78,2.93-18.035-.619-1.7-2.434-2.411-3.973-2.78-4.593-.687-8.219,1.8-11.092,5.242a25.147,25.147,0,0,0-4.434,22.287c.347,1.006.968,1.981,1.315,2.928-2.695,1.761-5.508,3.421-8.982,3.191-2.635-.192-5.609-1.744-6.369-4.48a24.344,24.344,0,0,0,11.621-12.835c2.155-4.236,2.815-11.063-.782-14.8-2.647-2.061-6.842-.991-9.367.593-7.694,5.4-10.258,14.2-9.919,23.166a9.892,9.892,0,0,1-3.36-.644,11.264,11.264,0,0,0-.1-2.949A7.178,7.178,0,0,0,73.982,21.8C69.538,20.689,65.525,23.178,63,26.928c-2.562,3.929-4.247,9.724-1.428,14.083A7.251,7.251,0,0,0,68.1,44.276c5.048-.23,8.212-5.557,9.934-9.57a15.451,15.451,0,0,0,6.094,1.474,17.59,17.59,0,0,0,7.209,6.555c5.859,2.986,13.014.574,18.076-2.507a13.7,13.7,0,0,0,3.62,2.435c4.991,2.231,10.5-.045,14.3-3.436a7.985,7.985,0,0,0,5.149,4.152c4.132.419,7.5-2.188,9.646-5.575.919,2.546,3.571,5.156,6.328,5.465,5.229.64,9.169-3.121,12.283-7a9.2,9.2,0,0,0,2.081,4.314,7.6,7.6,0,0,0,8.184,1.733c4.028-1.615,6.673-5.85,7.851-9.712.982-3.182,1.408-7.788-1.243-10.34M75.349,32.776a7.191,7.191,0,0,1-3.929,4.336,3.9,3.9,0,0,1-3.542-.764c-1.489-2.087-1.142-5.045.017-7.172a11.762,11.762,0,0,1,2.444-3.044,18.122,18.122,0,0,0,5.009,6.645m.646-3.539a9.209,9.209,0,0,1-3.587-4.118,3.372,3.372,0,0,1,2.084.2c1.43.849,1.614,2.5,1.5,3.914m13.488.447c-.46-7.008,1.506-13.429,6.455-18.319.946-.589,2.1-1.232,3.286-.739,2.115,1.909,1.556,5.478.63,7.749A26.042,26.042,0,0,1,94.132,26.9a16.446,16.446,0,0,1-4.65,2.786m21.731,2.474c-1.042-3.036-.689-6.845-.258-10.068a21.132,21.132,0,0,1,5.516-10.953c1.092-.867,2.566-1.813,3.925-1.04,1.75,1.311,1.353,3.8,1.118,5.77a29.966,29.966,0,0,1-2.91,7.1,45.912,45.912,0,0,1-7.39,9.185m63.539.677-1.367,1.64c-1.1.9-2.52,1.728-3.973,1.155-1.588-.892-1.835-2.666-1.858-4.373a9.788,9.788,0,0,1,4.533-7.123c1.048-.348,2.595-.714,3.472.239,2.294,2.544.432,6.027-.807,8.462" transform="translate(-14.381 -1.393)" fill="#e90000"/>
    <path id="Trazado_4" data-name="Trazado 4" d="M218.8,51.192l-.687-2.98-1.152,0L216.954,52l.74,0,0-2.564c0-.074,0-.177,0-.31s0-.234,0-.307L218.4,52h.771l.72-3.177v.307c0,.132,0,.235,0,.31l0,2.562.74,0,.007-3.788-1.142,0Zm2.479.814.782,0,0-.769-.782,0Zm3.207-3.126a.8.8,0,0,1,.368.068.474.474,0,0,1,.215.463.417.417,0,0,1-.226.425.867.867,0,0,1-.381.061h-.851V48.88Zm.166-.657-1.811,0-.006,3.789.771,0,0-1.487.772,0a.649.649,0,0,1,.452.119.738.738,0,0,1,.124.484l0,.351a2.058,2.058,0,0,0,.037.327,1.95,1.95,0,0,0,.05.205l.875,0v-.1a.315.315,0,0,1-.148-.218,2.088,2.088,0,0,1-.018-.351v-.256a1.252,1.252,0,0,0-.109-.59.726.726,0,0,0-.372-.3.749.749,0,0,0,.452-.368,1.129,1.129,0,0,0,.135-.528,1.007,1.007,0,0,0-.069-.4,1.1,1.1,0,0,0-.187-.32.99.99,0,0,0-.355-.266,1.569,1.569,0,0,0-.6-.1m1.9,3.792.777,0,0-.768h-.778Z" transform="translate(-51.903 -11.533)" fill="#e90000"/>
    <path id="Trazado_5" data-name="Trazado 5" d="M3.22,114.077l-.544-1.439c.431-.163.646-.243,1.076-.4-.841-2.26-1.262-3.391-2.105-5.651-.441.164-.662.247-1.1.414-.218-.576-.326-.863-.545-1.439,3.256-1.23,4.892-1.817,8.177-2.932.372,1.094.558,1.641.929,2.734-.705.24-1.057.361-1.761.606L6.9,104.69c-1.146.4-1.718.6-2.86,1.013.286.791.428,1.187.714,1.977.915-.33,1.373-.493,2.29-.815l.509,1.452c-.911.32-1.367.482-2.276.81.324.9.487,1.348.811,2.247,1.115-.4,1.674-.6,2.793-.99L8.435,109.1c.695-.241,1.042-.361,1.738-.6l.932,2.746c-3.169,1.076-4.746,1.642-7.885,2.828" transform="translate(0 -24.552)" fill="#e90000"/>
    <path id="Trazado_6" data-name="Trazado 6" d="M14.765,109.864l-.489-1.459c.484-.162.726-.243,1.21-.4L13.6,102.275c-.5.164-.745.246-1.24.412-.2-.584-.294-.875-.49-1.458,1.567-.526,2.352-.782,3.926-1.282,2.066,1.727,3.085,2.6,5.093,4.367-.479-1.585-.718-2.378-1.2-3.964-.485.147-.729.221-1.214.37l-.453-1.471c1.684-.518,2.528-.77,4.218-1.258.171.591.256.887.427,1.478-.525.152-.787.228-1.312.383.863,2.929,1.294,4.393,2.158,7.322-.809.238-1.213.359-2.02.6-2.348-2.108-3.541-3.15-5.969-5.2l1.579,4.9c.456-.148.685-.221,1.143-.365l.465,1.467c-1.582.5-2.371.758-3.946,1.287" transform="translate(-2.839 -23.443)" fill="#e90000"/>
    <path id="Trazado_7" data-name="Trazado 7" d="M33.21,104.868l-.4-1.485c.525-.142.787-.213,1.313-.352-.618-2.332-.927-3.5-1.545-5.829-.539.143-.808.215-1.346.361-.161-.594-.241-.891-.4-1.485,2.078-.563,3.118-.834,5.2-1.352.148.6.223.9.371,1.493-.551.137-.826.206-1.376.346l1.487,5.844c1.087-.277,1.632-.412,2.722-.676-.266-1.095-.4-1.642-.663-2.736.727-.176,1.089-.263,1.817-.434l.994,4.239c-3.28.77-4.915,1.183-8.174,2.066" transform="translate(-7.375 -22.662)" fill="#e90000"/>
    <path id="Trazado_8" data-name="Trazado 8" d="M53.973,98.429c.117.6.174.906.292,1.511-1.817.35-2.725.533-4.537.918-.127-.6-.191-.9-.32-1.5.475-.1.712-.151,1.188-.25-.3-.576-.456-.864-.762-1.44-.968.2-1.452.307-2.419.519-.064.655-.1.982-.157,1.637.494-.11.743-.164,1.239-.271.129.6.2.9.325,1.5-1.63.353-2.444.536-4.07.917-.141-.6-.211-.9-.35-1.5.456-.107.684-.16,1.142-.265.181-2.517.281-3.775.5-6.294-.5.112-.756.168-1.26.282-.136-.6-.2-.9-.341-1.5,2.488-.564,3.735-.83,6.234-1.331l.3,1.509c-.512.1-.768.154-1.278.259,1.285,2.2,1.917,3.3,3.166,5.514.443-.087.664-.131,1.108-.216m-4.8-1.992c-.54-1.008-.811-1.511-1.356-2.517-.111,1.146-.164,1.719-.268,2.864.649-.142.975-.211,1.624-.348" transform="translate(-10.622 -21.857)" fill="#e90000"/>
    <path id="Trazado_9" data-name="Trazado 9" d="M57.757,99.335l-.58-3.049c.635-.121.952-.18,1.588-.3a1.72,1.72,0,0,0,.682,1.152,1.433,1.433,0,0,0,1.049.219,1.021,1.021,0,0,0,.674-.415.926.926,0,0,0,.177-.724.935.935,0,0,0-.41-.643,4.084,4.084,0,0,0-1.173-.453A8.8,8.8,0,0,1,57.3,94.21a2.111,2.111,0,0,1-.879-1.436,2.252,2.252,0,0,1,.438-1.965,2.753,2.753,0,0,1,1.665-.972,2.1,2.1,0,0,1,1.919.523c-.052-.3-.077-.447-.129-.746.649-.111.974-.167,1.623-.275.181,1.093.272,1.639.453,2.732-.643.106-.964.161-1.605.272a1.513,1.513,0,0,0-.632-.9,1.332,1.332,0,0,0-.963-.184,1.122,1.122,0,0,0-.635.32.627.627,0,0,0-.18.571.789.789,0,0,0,.321.485,4.782,4.782,0,0,0,1.442.468,10.717,10.717,0,0,1,1.748.525,2.593,2.593,0,0,1,1.58,2.051A2.508,2.508,0,0,1,63,97.819a2.917,2.917,0,0,1-1.778,1,2.264,2.264,0,0,1-2.036-.537l.141.765c-.628.114-.942.173-1.569.292" transform="translate(-13.485 -21.373)" fill="#e90000"/>
    <path id="Trazado_10" data-name="Trazado 10" d="M71.424,96.833c-.089-.609-.133-.914-.222-1.522.484-.071.726-.106,1.21-.174-.337-2.388-.506-3.582-.842-5.971-.5.07-.744.106-1.24.178-.089-.609-.133-.914-.222-1.522,1.933-.282,2.9-.415,4.838-.66,1.115,2.01,1.663,3.018,2.743,5.039.585-2.218.886-3.326,1.508-5.541,1.977-.217,2.966-.315,4.946-.493.056.613.083.92.138,1.532-.5.045-.747.068-1.245.116l.571,6c.486-.046.729-.068,1.215-.113.056.613.083.92.138,1.533-1.88.169-2.819.262-4.7.467L80.1,94.175c.453-.05.68-.074,1.134-.122-.251-2.4-.377-3.6-.628-6l-.228.024c-.874,3.137-1.293,4.707-2.094,7.85-.4.047-.6.071-1,.12-1.534-2.864-2.318-4.29-3.922-7.13l-.227.03c.322,2.39.483,3.585.806,5.977.49-.066.735-.1,1.225-.162l.2,1.526c-1.574.2-2.36.312-3.931.542" transform="translate(-16.772 -20.614)" fill="#e90000"/>
    <path id="Trazado_11" data-name="Trazado 11" d="M90.485,94.952c-.053-.613-.08-.92-.132-1.533l1.128-.1c-.2-2.4-.3-3.606-.492-6.01-.463.038-.694.058-1.156.1-.052-.614-.079-.921-.132-1.534,3.415-.294,5.124-.413,8.545-.593.061,1.153.091,1.73.152,2.884-.734.038-1.1.059-1.835.1-.032-.539-.049-.808-.081-1.347-1.2.072-1.792.111-2.987.2.061.838.091,1.258.151,2.1.956-.069,1.435-.1,2.392-.161.038.614.057.922.1,1.536-.952.059-1.427.091-2.377.159l.171,2.383c1.166-.084,1.749-.122,2.915-.192-.033-.544-.049-.816-.081-1.359.724-.043,1.086-.063,1.811-.1.061,1.159.091,1.738.153,2.9-3.3.173-4.947.288-8.24.572" transform="translate(-21.459 -20.403)" fill="#e90000"/>
    <path id="Trazado_12" data-name="Trazado 12" d="M102.178,96.916c-.033-.66-.05-.989-.084-1.649a2.674,2.674,0,0,0,.7.077.968.968,0,0,0,.783-.338,1.739,1.739,0,0,0,.195-1.07c-.129-2.92-.193-4.38-.322-7.3-.574.026-.86.039-1.435.068l-.076-1.537c2.115-.1,3.172-.147,5.289-.208.017.615.027.923.044,1.538-.524.015-.787.024-1.311.041.1,2.956.151,4.433.253,7.389a3.023,3.023,0,0,1-.674,2.274,2.77,2.77,0,0,1-1.965.811,6.947,6.947,0,0,1-1.4-.1" transform="translate(-24.388 -20.325)" fill="#e90000"/>
    <path id="Trazado_13" data-name="Trazado 13" d="M115.572,84.632a5.4,5.4,0,0,1,3.942,1.376,4.369,4.369,0,0,1,1.378,3.338,4.485,4.485,0,0,1-1.456,3.3,5.348,5.348,0,0,1-3.825,1.345,5.232,5.232,0,0,1-3.884-1.351,4.605,4.605,0,0,1-1.436-3.253,4.38,4.38,0,0,1,1.344-3.347,5.386,5.386,0,0,1,3.938-1.411m.007,1.662a2.52,2.52,0,0,0-1.876.8,3.145,3.145,0,0,0-.737,2.314,3.046,3.046,0,0,0,.778,2.138,2.449,2.449,0,0,0,1.86.79,2.489,2.489,0,0,0,1.846-.79,3.166,3.166,0,0,0,.775-2.271,3.085,3.085,0,0,0-.727-2.157,2.439,2.439,0,0,0-1.919-.825" transform="translate(-26.385 -20.247)" fill="#e90000"/>
    <path id="Trazado_14" data-name="Trazado 14" d="M135.295,92.863c-.037.615-.056.922-.094,1.536-1.14-.069-1.709-.1-2.85-.157-.767-1.635-1.157-2.45-1.952-4.079l-1.088-.042c-.036.979-.053,1.468-.089,2.447.472.017.708.026,1.178.046-.025.615-.037.922-.063,1.538-1.957-.081-2.935-.111-4.892-.152.013-.615.019-.924.032-1.539.518.011.777.018,1.294.031.064-2.412.1-3.617.159-6.028-.53-.014-.8-.021-1.325-.031.013-.615.019-.924.032-1.539,2.343.049,3.515.088,5.856.191a3.1,3.1,0,0,1,2.34.9,2.521,2.521,0,0,1,.626,1.808,2.388,2.388,0,0,1-1.776,2.174c.564,1.13.843,1.695,1.394,2.828.487.027.731.041,1.218.071m-5.931-4.195.853.033c1.055.042,1.6-.29,1.632-1a.912.912,0,0,0-.328-.809,1.684,1.684,0,0,0-.99-.3l-1.09-.042c-.03.851-.046,1.276-.077,2.126" transform="translate(-30.011 -20.309)" fill="#e90000"/>
    <path id="Trazado_15" data-name="Trazado 15" d="M138.835,94.564c.039-.614.058-.921.1-1.536l1.131.074c.161-2.407.243-3.611.4-6.017-.463-.031-.694-.046-1.157-.075.039-.614.058-.921.1-1.536,3.42.215,5.128.35,8.54.679-.11,1.15-.166,1.725-.277,2.874-.732-.07-1.1-.1-1.83-.17.048-.537.072-.806.119-1.344-1.193-.107-1.789-.156-2.984-.248-.065.838-.1,1.258-.161,2.1.956.074,1.434.113,2.39.2l-.133,1.534c-.949-.083-1.425-.122-2.375-.195-.074.952-.11,1.429-.184,2.382,1.166.09,1.748.138,2.913.242.048-.542.072-.813.121-1.356.723.065,1.084.1,1.806.168-.111,1.155-.167,1.732-.278,2.887-3.29-.317-4.937-.449-8.235-.655" transform="translate(-33.214 -20.448)" fill="#e90000"/>
    <path id="Trazado_16" data-name="Trazado 16" d="M151.149,95.631l.312-3.088c.641.065.962.1,1.6.167a1.718,1.718,0,0,0,.325,1.3,1.431,1.431,0,0,0,.941.509,1.016,1.016,0,0,0,.762-.206.93.93,0,0,0,.377-.644.94.94,0,0,0-.21-.733,4.088,4.088,0,0,0-.994-.767,8.744,8.744,0,0,1-2.092-1.578,2.116,2.116,0,0,1-.433-1.627,2.257,2.257,0,0,1,.977-1.759,2.745,2.745,0,0,1,1.869-.459,2.1,2.1,0,0,1,1.687,1.048c.035-.3.053-.451.089-.752.653.077.979.116,1.632.2-.138,1.1-.206,1.649-.343,2.749-.646-.081-.968-.119-1.614-.2a1.509,1.509,0,0,0-.348-1.04,1.324,1.324,0,0,0-.869-.451,1.116,1.116,0,0,0-.7.126.626.626,0,0,0-.333.5.782.782,0,0,0,.169.555,4.743,4.743,0,0,0,1.246.859,10.661,10.661,0,0,1,1.523,1,2.592,2.592,0,0,1,.93,2.416,2.512,2.512,0,0,1-1.061,1.915,2.909,2.909,0,0,1-1.984.45,2.259,2.259,0,0,1-1.795-1.093c-.033.309-.049.463-.083.772-.633-.068-.949-.1-1.582-.165" transform="translate(-36.16 -20.748)" fill="#e90000"/>
    <path id="Trazado_17" data-name="Trazado 17" d="M164.859,97.278c.088-.609.132-.914.22-1.523.484.07.726.106,1.21.178.357-2.386.535-3.579.892-5.964-.5-.074-.743-.11-1.239-.182.088-.609.132-.914.22-1.523,1.934.279,2.9.428,4.829.745.5,2.244.738,3.366,1.2,5.612,1.193-1.96,1.8-2.937,3.026-4.883,1.962.356,2.942.543,4.9.937-.122.6-.183.905-.3,1.509-.492-.1-.739-.148-1.231-.245l-1.162,5.917c.481.094.721.142,1.2.24l-.3,1.508c-1.856-.374-2.787-.552-4.648-.89l.275-1.515c.45.082.675.123,1.124.207l1.1-5.928-.225-.042c-1.734,2.758-2.583,4.143-4.247,6.928l-1-.171c-.657-3.182-1-4.772-1.735-7.951l-.227-.036-.928,5.958c.488.076.733.115,1.221.194-.1.607-.147.911-.244,1.519-1.569-.253-2.354-.373-3.925-.6" transform="translate(-39.44 -21.116)" fill="#e90000"/>
    <path id="Trazado_18" data-name="Trazado 18" d="M192.862,101.2,192.5,102.7c-1.8-.441-2.705-.653-4.514-1.06l.337-1.5c.474.107.711.161,1.184.269-.036-.65-.054-.976-.091-1.627-.966-.22-1.449-.328-2.416-.538-.332.568-.5.853-.826,1.422l1.239.27-.331,1.5c-1.63-.359-2.445-.533-4.079-.864l.307-1.508,1.146.236c1.214-2.212,1.83-3.314,3.077-5.512-.505-.11-.758-.163-1.263-.269l.317-1.506c2.495.526,3.74.8,6.224,1.391-.142.6-.213.9-.355,1.5-.508-.121-.763-.18-1.272-.3.251,2.534.367,3.8.58,6.332.44.106.66.159,1.1.267m-3.536-3.812c-.07-1.141-.107-1.712-.183-2.853-.579,1-.867,1.493-1.438,2.492.649.142.973.215,1.621.361" transform="translate(-43.78 -22.012)" fill="#e90000"/>
    <path id="Trazado_19" data-name="Trazado 19" d="M195.942,103.387l.367-1.494c.493.121.739.183,1.232.307.588-2.339.882-3.509,1.471-5.848-.5-.127-.757-.19-1.261-.314l.367-1.494c1.6.393,2.393.6,3.983,1.015.815,2.563,1.206,3.846,1.955,6.413.444-1.6.666-2.393,1.11-3.989-.488-.136-.733-.2-1.221-.337.162-.594.243-.891.405-1.484,1.7.463,2.542.7,4.231,1.194-.172.591-.259.886-.431,1.477-.525-.153-.787-.229-1.313-.379l-2.1,7.34c-.809-.231-1.215-.345-2.027-.57-.852-3.037-1.3-4.555-2.244-7.589-.516,1.993-.774,2.99-1.289,4.982.463.12.694.18,1.156.3-.157.595-.236.892-.393,1.487-1.6-.422-2.4-.626-4-1.021" transform="translate(-46.876 -22.618)" fill="#e90000"/>
    <path id="Trazado_20" data-name="Trazado 20" d="M218.5,100.39a5.512,5.512,0,0,1,3.372,2.539,4.344,4.344,0,0,1,.3,3.607,4.456,4.456,0,0,1-2.42,2.688,5.461,5.461,0,0,1-4.1.087,5.324,5.324,0,0,1-3.322-2.494,4.584,4.584,0,0,1-.38-3.541,4.358,4.358,0,0,1,2.322-2.767,5.481,5.481,0,0,1,4.225-.119m-.506,1.585a2.559,2.559,0,0,0-2.052.178,3.124,3.124,0,0,0-1.422,1.973,3.024,3.024,0,0,0,.092,2.275,2.487,2.487,0,0,0,1.546,1.331,2.537,2.537,0,0,0,2.021-.177,3.137,3.137,0,0,0,1.445-1.919,3.064,3.064,0,0,0-.036-2.278,2.484,2.484,0,0,0-1.595-1.383" transform="translate(-50.66 -23.931)" fill="#e90000"/>
    <path id="Trazado_21" data-name="Trazado 21" d="M225.189,112.332c.408-1.172.613-1.758,1.021-2.93.617.215.925.323,1.54.542a1.71,1.71,0,0,0,.02,1.339,1.462,1.462,0,0,0,.809.72,1.037,1.037,0,0,0,.8-.02.925.925,0,0,0,.521-.537.939.939,0,0,0-.037-.763,4.156,4.156,0,0,0-.8-.982,8.89,8.89,0,0,1-1.7-2.032,2.1,2.1,0,0,1-.049-1.685,2.241,2.241,0,0,1,1.369-1.48,2.8,2.8,0,0,1,1.948,0,2.135,2.135,0,0,1,1.418,1.42l.262-.711c.625.231.937.347,1.563.581-.39,1.037-.586,1.556-.975,2.593-.618-.232-.927-.347-1.546-.575a1.5,1.5,0,0,0-.1-1.095,1.347,1.347,0,0,0-.751-.645,1.144,1.144,0,0,0-.718-.043.619.619,0,0,0-.443.4.775.775,0,0,0,.037.58,4.85,4.85,0,0,0,1.029,1.132,10.9,10.9,0,0,1,1.271,1.335,2.591,2.591,0,0,1,.358,2.572,2.5,2.5,0,0,1-1.489,1.611,2.981,2.981,0,0,1-2.059-.035,2.3,2.3,0,0,1-1.515-1.49c-.1.293-.156.439-.261.731-.606-.216-.911-.323-1.519-.536" transform="translate(-53.873 -24.959)" fill="#e90000"/>
    <rect id="Rectángulo_3" data-name="Rectángulo 3" width="32.105" height="1.251" transform="translate(20.156 89.818)" fill="#e90000"/>
    <rect id="Rectángulo_4" data-name="Rectángulo 4" width="32.105" height="1.251" transform="translate(128.059 89.819)" fill="#e90000"/>
    <path id="Trazado_22" data-name="Trazado 22" d="M75.466,121.4v-1.292h1.16v-5.061h-1.16v-1.291h3.622a9.682,9.682,0,0,1,1.84.141,3.282,3.282,0,0,1,1.335.619,3.424,3.424,0,0,1,1.022,1.289,4.114,4.114,0,0,1,.385,1.791,4.3,4.3,0,0,1-.269,1.519,3.6,3.6,0,0,1-.667,1.166,3,3,0,0,1-.954.7,3.978,3.978,0,0,1-1.019.338,9.593,9.593,0,0,1-1.436.077Zm3.143-1.292h.478a3.448,3.448,0,0,0,1.376-.225,1.723,1.723,0,0,0,.817-.794,3.119,3.119,0,0,0,.307-1.486,3.25,3.25,0,0,0-.31-1.484,1.718,1.718,0,0,0-.84-.84,3.39,3.39,0,0,0-1.349-.231h-.479Z" transform="translate(-18.054 -27.214)" fill="#e90000"/>
    <path id="Trazado_23" data-name="Trazado 23" d="M87.471,121.4v-1.292h.918v-5.06h-.918v-1.292h6.737v2.423H92.746v-1.131H90.378v1.764H92.29V118.1H90.378v2h2.368v-1.143h1.461V121.4Z" transform="translate(-20.926 -27.214)" fill="#e90000"/>
    <path id="Trazado_24" data-name="Trazado 24" d="M97.527,121.374v-2.6h1.3a1.461,1.461,0,0,0,.374,1.051,1.127,1.127,0,0,0,.8.338.807.807,0,0,0,.593-.243.8.8,0,0,0,.242-.575.808.808,0,0,0-.237-.591,3.3,3.3,0,0,0-.864-.544,6.671,6.671,0,0,1-1.8-1.129,1.817,1.817,0,0,1-.473-1.321,1.957,1.957,0,0,1,.627-1.552,2.1,2.1,0,0,1,1.423-.55,1.627,1.627,0,0,1,1.412.711v-.634h1.292v2.324h-1.292a1.3,1.3,0,0,0-.371-.832,1.019,1.019,0,0,0-.722-.294.854.854,0,0,0-.538.17.538.538,0,0,0-.221.446.679.679,0,0,0,.181.447,3.6,3.6,0,0,0,1.062.6,8.768,8.768,0,0,1,1.3.682,2.221,2.221,0,0,1,.717.792,2.326,2.326,0,0,1,.263,1.125,2.134,2.134,0,0,1-.66,1.7,2.3,2.3,0,0,1-1.56.573,1.806,1.806,0,0,1-1.55-.745v.651Z" transform="translate(-23.316 -27.19)" fill="#e90000"/>
    <path id="Trazado_25" data-name="Trazado 25" d="M105.044,121.4v-1.292h1.16v-5.061h-1.16v-1.291h3.622a9.683,9.683,0,0,1,1.84.141,3.282,3.282,0,0,1,1.335.619,3.424,3.424,0,0,1,1.022,1.289,4.114,4.114,0,0,1,.385,1.791,4.3,4.3,0,0,1-.269,1.519,3.6,3.6,0,0,1-.667,1.165,3.008,3.008,0,0,1-.954.7,4,4,0,0,1-1.019.337,9.594,9.594,0,0,1-1.436.077Zm3.143-1.292h.478a3.448,3.448,0,0,0,1.376-.225,1.723,1.723,0,0,0,.817-.794,3.119,3.119,0,0,0,.307-1.486,3.25,3.25,0,0,0-.31-1.484,1.718,1.718,0,0,0-.84-.84,3.39,3.39,0,0,0-1.349-.231h-.479Z" transform="translate(-25.13 -27.214)" fill="#e90000"/>
    <path id="Trazado_26" data-name="Trazado 26" d="M117.049,121.4v-1.292h.918v-5.06h-.918v-1.292h6.737v2.423h-1.461v-1.131h-2.368v1.763h1.912V118.1h-1.912v2h2.368v-1.143h1.461V121.4Z" transform="translate(-28.002 -27.214)" fill="#e90000"/>
    <path id="Trazado_27" data-name="Trazado 27" d="M131.785,121.4v-1.225h1.055v-5.192h-1.121v-1.226h2.8v6.419h1V121.4Z" transform="translate(-31.512 -27.214)" fill="#e90000"/>
    <path id="Trazado_28" data-name="Trazado 28" d="M142.885,117.344a1.877,1.877,0,0,1,1.33,1.892,2.051,2.051,0,0,1-.685,1.619,2.954,2.954,0,0,1-2.008.6,2.773,2.773,0,0,1-1.992-.641,2.141,2.141,0,0,1-.667-1.613,1.864,1.864,0,0,1,1.356-1.859,1.951,1.951,0,0,1-1.126-1.757,1.8,1.8,0,0,1,.657-1.449,3.209,3.209,0,0,1,3.6,0,1.789,1.789,0,0,1,.636,1.419,1.984,1.984,0,0,1-1.1,1.79m-.291,1.744a1.292,1.292,0,0,0-.288-.87.945.945,0,0,0-.756-.339.955.955,0,0,0-.745.33,1.275,1.275,0,0,0-.294.879,1.216,1.216,0,0,0,.291.86.971.971,0,0,0,.747.316.984.984,0,0,0,.751-.316,1.212,1.212,0,0,0,.294-.86m-.154-3.3a1.128,1.128,0,0,0-.232-.738.808.808,0,0,0-.663-.284.858.858,0,0,0-.649.263,1.081,1.081,0,0,0-.253.775,1.066,1.066,0,0,0,.241.714.813.813,0,0,0,.66.286.822.822,0,0,0,.653-.28,1.087,1.087,0,0,0,.243-.737" transform="translate(-33.221 -27.173)" fill="#e90000"/>
    <path id="Trazado_29" data-name="Trazado 29" d="M146.974,119.344l1.445-.171q.148,1.1,1.011,1.1a.92.92,0,0,0,.761-.332,1.476,1.476,0,0,0,.266-.943q0-1.357-.994-1.357a1.069,1.069,0,0,0-.918.6l-1.225-.61.225-3.875h4.291v1.8H150.72l-.1-.572h-1.965l-.107,1.834a2.2,2.2,0,0,1,1.3-.434,2.156,2.156,0,0,1,1.739.728,2.648,2.648,0,0,1,.618,1.772,2.714,2.714,0,0,1-.662,1.865,2.613,2.613,0,0,1-4.568-1.4" transform="translate(-35.161 -27.214)" fill="#e90000"/>
    <path id="Trazado_30" data-name="Trazado 30" d="M155.135,119.022l1.471-.12c.019.9.356,1.347,1.012,1.347a.916.916,0,0,0,.726-.324,1.351,1.351,0,0,0,.005-1.64,1.015,1.015,0,0,0-.825-.327c-.088,0-.2,0-.341.01v-1.285a1.313,1.313,0,0,0,.951-.294.97.97,0,0,0,.3-.717.858.858,0,0,0-.226-.613.776.776,0,0,0-.59-.239c-.545,0-.817.338-.817,1.01l-1.427-.109a2.085,2.085,0,0,1,.694-1.588,2.471,2.471,0,0,1,1.652-.55,2.594,2.594,0,0,1,1.751.539,1.844,1.844,0,0,1,.623,1.472,1.786,1.786,0,0,1-1.143,1.737,1.8,1.8,0,0,1,1.417,1.825,2.085,2.085,0,0,1-.73,1.692,2.8,2.8,0,0,1-1.857.609,2.355,2.355,0,0,1-2.643-2.434" transform="translate(-37.114 -27.173)" fill="#e90000"/>
  </g>
</svg>
